<?xml version="1.0" encoding="UTF-8" standalone="no"?>
<!-- Created with Inkscape (http://www.inkscape.org/) -->

<svg
   width="29.564413mm"
   height="11.150725mm"
   viewBox="0 0 29.564413 11.150725"
   version="1.1"
   id="svg1"
   xmlns:inkscape="http://www.inkscape.org/namespaces/inkscape"
   xmlns:sodipodi="http://sodipodi.sourceforge.net/DTD/sodipodi-0.dtd"
   xmlns="http://www.w3.org/2000/svg"
   xmlns:svg="http://www.w3.org/2000/svg">
  <sodipodi:namedview
     id="namedview1"
     pagecolor="#505050"
     bordercolor="#eeeeee"
     borderopacity="1"
     inkscape:showpageshadow="0"
     inkscape:pageopacity="0"
     inkscape:pagecheckerboard="0"
     inkscape:deskcolor="#505050"
     inkscape:document-units="mm">
    <inkscape:page
       x="0"
       y="0"
       width="29.564413"
       height="11.150725"
       id="page2"
       margin="0"
       bleed="0" />
  </sodipodi:namedview>
  <defs
     id="defs1" />
  <g
     inkscape:label="Layer 1"
     inkscape:groupmode="layer"
     id="layer1"
     transform="translate(-57.74669,-150.1339)">
    <path
       d="m 238.71158,608.57968 -10.88997,-17.1328 h -4.95508 v 17.1328 h -3.61132 v -40.1445 h 12.73762 q 2.04362,0 3.83528,0.78385 1.79167,0.75586 3.13542,2.09961 1.34375,1.34375 2.09961,3.16341 0.78385,1.79166 0.78385,3.83528 v 3.2474 q 0,2.04361 -0.78385,3.86327 -0.75586,1.79167 -2.09961,3.13542 -1.34375,1.34375 -3.13542,2.1276 -1.79166,0.75586 -3.83528,0.75586 l 10.88997,17.1328 z m -0.47592,-30.26235 q 0,-1.34375 -0.5039,-2.49153 -0.50391,-1.17578 -1.37175,-2.04362 -0.86783,-0.89584 -2.04361,-1.39974 -1.14779,-0.50391 -2.49154,-0.50391 h -8.95833 v 16.12499 h 8.95833 q 1.34375,0 2.49154,-0.5039 1.17578,-0.50391 2.04361,-1.37175 0.86784,-0.89583 1.37175,-2.04362 0.5039,-1.17578 0.5039,-2.51952 z m 20.9401,11.05794 v 19.20441 h -3.61133 v -19.14842 l -10.38606,-20.99608 h 3.89127 l 8.25846,16.68488 8.25846,-16.68488 h 3.89127 z m 38.63279,9.35025 q 0,2.04362 -0.78386,3.83529 -0.75586,1.79166 -2.09961,3.13541 -1.34375,1.34375 -3.16341,2.12761 -1.79166,0.75585 -3.83528,0.75585 h -12.70963 v -40.1445 h 12.70963 q 2.04362,0 3.83528,0.78385 1.81966,0.75586 3.16341,2.09961 1.34375,1.34375 2.09961,3.16341 0.78386,1.79166 0.78386,3.83528 z m -3.61133,-20.40819 q 0,-1.34375 -0.50391,-2.49153 -0.5039,-1.17578 -1.39974,-2.04362 -0.86783,-0.89584 -2.04361,-1.39974 -1.14779,-0.50391 -2.49154,-0.50391 h -8.93033 v 33.2578 h 8.93033 q 1.34375,0 2.49154,-0.50391 1.17578,-0.50391 2.04361,-1.37174 0.89584,-0.86784 1.39974,-2.01563 0.50391,-1.17578 0.50391,-2.51953 z m 12.20572,30.26235 v -40.1445 h 22.59179 v 3.44335 h -18.98046 v 14.92122 h 15.36913 v 3.44336 h -15.36913 v 14.89322 h 18.98046 v 3.44335 z"
       id="text3"
       style="font-size:57.3333px;font-family:Abel;-inkscape-font-specification:Abel;white-space:pre;stroke:#000000;stroke-width:2"
       transform="scale(0.26458333)"
       aria-label="RYDE" />
  </g>
</svg>
